<svg width="76" height="76" viewBox="0 0 76 76" fill="none" xmlns="http://www.w3.org/2000/svg">
    <mask id="mask0_3_57" style="mask-type:alpha" maskUnits="userSpaceOnUse" x="0" y="0" width="76"
        height="76">
        <circle cx="38" cy="38" r="37" fill="#D9D9D9" stroke="#696969" stroke-width="2" />
    </mask>
    <g mask="url(#mask0_3_57)">
        <mask id="moonCutout">
            <rect width="100%" height="100%" fill="white"/>
            <circle cx="47.5" cy="26" r="31" fill="black"/>
        </mask>
        <circle cx="38" cy="38" r="38" fill="#BF9CCC" mask="url(#moonCutout)" />
        <path
            d="M46.4733 -5.5C64.1612 -5.5 78.5 9.12259 78.5 27.1605C78.5 28.5367 78.4146 29.8928 78.2526 31.2243C71.1911 28.9151 65.2684 28.7432 59.865 29.8031C54.8083 30.7949 50.2293 32.871 45.7025 35.1398C45.5721 35.0774 45.4141 35.0023 45.2306 34.9156C44.6452 34.6394 43.7977 34.2456 42.7432 33.774C40.635 32.831 37.6946 31.5738 34.3658 30.3153C28.2596 28.0066 20.669 25.6257 14.5 25.2824C15.4542 8.11848 29.4036 -5.5 46.4733 -5.5Z"
            fill="#BF9CCC" />
        <path
            d="M16 25.5C29 25.5 46.5 35.8808 46.5 35.8808M46.5 35.8808C51.4041 33.4575 56.3918 31.3342 62 30.6921M46.5 35.8808C38.5441 39.8121 30.8082 44.5329 21 45M78 33C71.9964 30.6721 66.7734 30.1456 62 30.6921M62 30.6921L49 58.5"
            stroke="black" stroke-width="3" />
        <circle cx="47.5" cy="26" r="32.5" stroke="black" stroke-width="3" />
        <circle cx="38" cy="38" r="36.5" stroke="black" stroke-width="3" />
        <path
            d="M43.5078 13.9609C43.7183 14.505 44.1561 14.9304 44.7061 15.125L50.0029 17L44.7061 18.875C44.1561 19.0696 43.7183 19.495 43.5078 20.0391L41.5 25.2285L39.4922 20.0391C39.2817 19.495 38.8439 19.0696 38.2939 18.875L32.9971 17L38.2939 15.125C38.8439 14.9304 39.2817 14.505 39.4922 13.9609L41.5 8.77148L43.5078 13.9609Z"
            fill="none" stroke="black" stroke-width="2" stroke-linejoin="round" stroke-linecap="round" />
    </g>
</svg>
