<svg width="303" height="78" viewBox="0 0 303 78" fill="none" xmlns="http://www.w3.org/2000/svg">
<mask id="mask0_2090_159" style="mask-type:alpha" maskUnits="userSpaceOnUse" x="0" y="0" width="76" height="76">
<circle cx="38" cy="38.0001" r="37" fill="#D9D9D9" stroke="#696969" stroke-width="2"/>
</mask>
<g mask="url(#mask0_2090_159)">
<circle cx="38" cy="38" r="38" fill="#BF9CCC"/>
<circle cx="47.5" cy="26" r="31" fill="white"/>
<path d="M46.4733 -5.5C64.1612 -5.5 78.5 9.12259 78.5 27.1605C78.5 28.5367 78.4146 29.8928 78.2526 31.2243C71.1911 28.9151 65.2684 28.7432 59.865 29.8031C54.8083 30.7949 50.2293 32.871 45.7025 35.1398C45.5721 35.0774 45.4141 35.0023 45.2306 34.9156C44.6452 34.6394 43.7977 34.2456 42.7432 33.774C40.635 32.831 37.6946 31.5738 34.3658 30.3153C28.2596 28.0066 20.669 25.6257 14.5 25.2824C15.4542 8.11848 29.4036 -5.5 46.4733 -5.5Z" fill="#BF9CCC"/>
<path d="M16 25.4999C29 25.4999 46.5 35.8807 46.5 35.8807M46.5 35.8807C51.4041 33.4574 56.3918 31.3341 62 30.692M46.5 35.8807C38.5441 39.812 30.8082 44.5329 21 44.9999M78 32.9999C71.9964 30.672 66.7734 30.1455 62 30.692M62 30.692L49 58.4999" stroke="black" stroke-width="3"/>
<circle cx="47.5" cy="26" r="32.5" stroke="black" stroke-width="3"/>
<circle cx="38" cy="38" r="36.5" stroke="black" stroke-width="3"/>
<path d="M43.5078 13.9609C43.7183 14.505 44.1561 14.9304 44.7061 15.125L50.0029 17L44.7061 18.875C44.1561 19.0696 43.7183 19.495 43.5078 20.0391L41.5 25.2285L39.4922 20.0391C39.2817 19.495 38.8439 19.0696 38.2939 18.875L32.9971 17L38.2939 15.125C38.8439 14.9304 39.2817 14.505 39.4922 13.9609L41.5 8.77148L43.5078 13.9609Z" fill="white" stroke="black" stroke-width="2"/>
</g>
<path d="M95.85 34.33C94.068 34.33 92.396 34 90.834 33.34C89.294 32.658 87.941 31.723 86.775 30.535C85.631 29.325 84.729 27.917 84.069 26.311C83.431 24.705 83.112 22.967 83.112 21.097C83.112 19.249 83.431 17.533 84.069 15.949C84.729 14.343 85.631 12.946 86.775 11.758C87.941 10.548 89.294 9.602 90.834 8.92C92.374 8.238 94.046 7.897 95.85 7.897C97.544 7.897 98.996 8.117 100.206 8.557C101.438 8.997 102.67 9.723 103.902 10.735C104.078 10.867 104.21 11.01 104.298 11.164C104.408 11.296 104.474 11.439 104.496 11.593C104.54 11.725 104.562 11.89 104.562 12.088C104.562 12.506 104.408 12.858 104.1 13.144C103.814 13.408 103.462 13.562 103.044 13.606C102.626 13.628 102.219 13.485 101.823 13.177C101.009 12.473 100.162 11.934 99.282 11.56C98.424 11.186 97.28 10.999 95.85 10.999C94.552 10.999 93.331 11.263 92.187 11.791C91.043 12.319 90.031 13.045 89.151 13.969C88.293 14.893 87.622 15.971 87.138 17.203C86.654 18.413 86.412 19.711 86.412 21.097C86.412 22.505 86.654 23.825 87.138 25.057C87.622 26.267 88.293 27.334 89.151 28.258C90.031 29.182 91.043 29.908 92.187 30.436C93.331 30.942 94.552 31.195 95.85 31.195C96.972 31.195 98.028 31.008 99.018 30.634C100.03 30.238 100.998 29.699 101.922 29.017C102.318 28.731 102.703 28.61 103.077 28.654C103.473 28.676 103.803 28.83 104.067 29.116C104.331 29.38 104.463 29.754 104.463 30.238C104.463 30.458 104.419 30.678 104.331 30.898C104.243 31.096 104.111 31.283 103.935 31.459C102.747 32.405 101.471 33.12 100.107 33.604C98.765 34.088 97.346 34.33 95.85 34.33ZM114.902 34C113.934 34 113.076 33.736 112.328 33.208C111.58 32.68 110.997 31.965 110.579 31.063C110.161 30.139 109.952 29.083 109.952 27.895V9.877C109.952 9.393 110.106 8.997 110.414 8.689C110.722 8.381 111.118 8.227 111.602 8.227C112.086 8.227 112.482 8.381 112.79 8.689C113.098 8.997 113.252 9.393 113.252 9.877V27.895C113.252 28.709 113.406 29.38 113.714 29.908C114.022 30.436 114.418 30.7 114.902 30.7H115.727C116.167 30.7 116.519 30.854 116.783 31.162C117.069 31.47 117.212 31.866 117.212 32.35C117.212 32.834 117.003 33.23 116.585 33.538C116.167 33.846 115.628 34 114.968 34H114.902ZM128.021 34.132C126.415 34.132 124.974 33.736 123.698 32.944C122.422 32.13 121.41 31.041 120.662 29.677C119.936 28.291 119.573 26.729 119.573 24.991C119.573 23.253 119.969 21.691 120.761 20.305C121.575 18.919 122.664 17.83 124.028 17.038C125.414 16.224 126.965 15.817 128.681 15.817C130.397 15.817 131.937 16.224 133.301 17.038C134.665 17.83 135.743 18.919 136.535 20.305C137.349 21.691 137.756 23.253 137.756 24.991H136.469C136.469 26.729 136.095 28.291 135.347 29.677C134.621 31.041 133.62 32.13 132.344 32.944C131.068 33.736 129.627 34.132 128.021 34.132ZM128.681 31.162C129.803 31.162 130.804 30.898 131.684 30.37C132.564 29.82 133.257 29.083 133.763 28.159C134.269 27.213 134.522 26.157 134.522 24.991C134.522 23.803 134.269 22.747 133.763 21.823C133.257 20.877 132.564 20.14 131.684 19.612C130.804 19.062 129.803 18.787 128.681 18.787C127.581 18.787 126.58 19.062 125.678 19.612C124.798 20.14 124.094 20.877 123.566 21.823C123.06 22.747 122.807 23.803 122.807 24.991C122.807 26.157 123.06 27.213 123.566 28.159C124.094 29.083 124.798 29.82 125.678 30.37C126.58 30.898 127.581 31.162 128.681 31.162ZM136.073 34.033C135.589 34.033 135.182 33.879 134.852 33.571C134.544 33.241 134.39 32.834 134.39 32.35V27.301L135.017 23.803L137.756 24.991V32.35C137.756 32.834 137.591 33.241 137.261 33.571C136.953 33.879 136.557 34.033 136.073 34.033ZM145.768 34C145.284 34 144.877 33.846 144.547 33.538C144.239 33.208 144.085 32.801 144.085 32.317V17.632C144.085 17.126 144.239 16.719 144.547 16.411C144.877 16.103 145.284 15.949 145.768 15.949C146.274 15.949 146.681 16.103 146.989 16.411C147.297 16.719 147.451 17.126 147.451 17.632V32.317C147.451 32.801 147.297 33.208 146.989 33.538C146.681 33.846 146.274 34 145.768 34ZM145.768 13.012C145.174 13.012 144.657 12.803 144.217 12.385C143.799 11.945 143.59 11.428 143.59 10.834C143.59 10.24 143.799 9.734 144.217 9.316C144.657 8.876 145.174 8.656 145.768 8.656C146.362 8.656 146.868 8.876 147.286 9.316C147.726 9.734 147.946 10.24 147.946 10.834C147.946 11.428 147.726 11.945 147.286 12.385C146.868 12.803 146.362 13.012 145.768 13.012ZM156.32 22.714C156.32 21.394 156.639 20.217 157.277 19.183C157.937 18.127 158.817 17.291 159.917 16.675C161.017 16.059 162.227 15.751 163.547 15.751C164.867 15.751 165.846 15.971 166.484 16.411C167.144 16.829 167.397 17.335 167.243 17.929C167.177 18.237 167.045 18.479 166.847 18.655C166.671 18.809 166.462 18.908 166.22 18.952C165.978 18.996 165.714 18.985 165.428 18.919C164.02 18.633 162.755 18.611 161.633 18.853C160.511 19.095 159.62 19.546 158.96 20.206C158.322 20.866 158.003 21.702 158.003 22.714H156.32ZM156.353 34C155.825 34 155.418 33.868 155.132 33.604C154.846 33.318 154.703 32.9 154.703 32.35V17.599C154.703 17.071 154.846 16.664 155.132 16.378C155.418 16.092 155.825 15.949 156.353 15.949C156.903 15.949 157.31 16.092 157.574 16.378C157.86 16.642 158.003 17.049 158.003 17.599V32.35C158.003 32.878 157.86 33.285 157.574 33.571C157.31 33.857 156.903 34 156.353 34ZM92.154 67.132C90.438 67.132 88.887 66.736 87.501 65.944C86.137 65.13 85.048 64.03 84.234 62.644C83.442 61.258 83.046 59.696 83.046 57.958C83.046 56.22 83.409 54.669 84.135 53.305C84.883 51.919 85.895 50.83 87.171 50.038C88.447 49.224 89.888 48.817 91.494 48.817C92.792 48.817 93.991 49.092 95.091 49.642C96.191 50.17 97.115 50.896 97.863 51.82V42.91C97.863 42.404 98.017 41.997 98.325 41.689C98.655 41.381 99.062 41.227 99.546 41.227C100.052 41.227 100.459 41.381 100.767 41.689C101.075 41.997 101.229 42.404 101.229 42.91V57.958C101.229 59.696 100.822 61.258 100.008 62.644C99.216 64.03 98.138 65.13 96.774 65.944C95.41 66.736 93.87 67.132 92.154 67.132ZM92.154 64.162C93.276 64.162 94.277 63.898 95.157 63.37C96.037 62.82 96.73 62.072 97.236 61.126C97.742 60.18 97.995 59.124 97.995 57.958C97.995 56.77 97.742 55.714 97.236 54.79C96.73 53.866 96.037 53.14 95.157 52.612C94.277 52.062 93.276 51.787 92.154 51.787C91.054 51.787 90.053 52.062 89.151 52.612C88.271 53.14 87.567 53.866 87.039 54.79C86.533 55.714 86.28 56.77 86.28 57.958C86.28 59.124 86.533 60.18 87.039 61.126C87.567 62.072 88.271 62.82 89.151 63.37C90.053 63.898 91.054 64.162 92.154 64.162ZM116.644 67.132C114.818 67.132 113.19 66.747 111.76 65.977C110.352 65.185 109.241 64.107 108.427 62.743C107.635 61.357 107.239 59.773 107.239 57.991C107.239 56.187 107.613 54.603 108.361 53.239C109.131 51.853 110.187 50.775 111.529 50.005C112.871 49.213 114.411 48.817 116.149 48.817C117.865 48.817 119.339 49.202 120.571 49.972C121.803 50.72 122.738 51.765 123.376 53.107C124.036 54.427 124.366 55.956 124.366 57.694C124.366 58.112 124.223 58.464 123.937 58.75C123.651 59.014 123.288 59.146 122.848 59.146H109.549V56.506H122.749L121.396 57.43C121.374 56.33 121.154 55.351 120.736 54.493C120.318 53.613 119.724 52.92 118.954 52.414C118.184 51.908 117.249 51.655 116.149 51.655C114.895 51.655 113.817 51.93 112.915 52.48C112.035 53.03 111.364 53.789 110.902 54.757C110.44 55.703 110.209 56.781 110.209 57.991C110.209 59.201 110.484 60.279 111.034 61.225C111.584 62.171 112.343 62.919 113.311 63.469C114.279 64.019 115.39 64.294 116.644 64.294C117.326 64.294 118.019 64.173 118.723 63.931C119.449 63.667 120.032 63.37 120.472 63.04C120.802 62.798 121.154 62.677 121.528 62.677C121.924 62.655 122.265 62.765 122.551 63.007C122.925 63.337 123.123 63.7 123.145 64.096C123.167 64.492 122.991 64.833 122.617 65.119C121.869 65.713 120.934 66.197 119.812 66.571C118.712 66.945 117.656 67.132 116.644 67.132ZM142.32 67C141.836 67 141.429 66.835 141.099 66.505C140.791 66.175 140.637 65.768 140.637 65.284V42.943C140.637 42.459 140.802 42.052 141.132 41.722C141.462 41.392 141.858 41.227 142.32 41.227C142.804 41.227 143.211 41.392 143.541 41.722C143.871 42.052 144.036 42.459 144.036 42.943V63.568H155.982C156.466 63.568 156.873 63.733 157.203 64.063C157.533 64.393 157.698 64.8 157.698 65.284C157.698 65.768 157.533 66.175 157.203 66.505C156.873 66.835 156.466 67 155.982 67H142.32ZM170.06 67.165C168.542 67.165 167.178 66.846 165.968 66.208C164.78 65.548 163.834 64.591 163.13 63.337C162.448 62.083 162.107 60.543 162.107 58.717V50.599C162.107 50.115 162.261 49.719 162.569 49.411C162.899 49.081 163.306 48.916 163.79 48.916C164.274 48.916 164.67 49.081 164.978 49.411C165.308 49.719 165.473 50.115 165.473 50.599V58.717C165.473 59.949 165.704 60.972 166.166 61.786C166.628 62.578 167.255 63.172 168.047 63.568C168.839 63.942 169.73 64.129 170.72 64.129C171.666 64.129 172.502 63.942 173.228 63.568C173.976 63.194 174.57 62.688 175.01 62.05C175.45 61.412 175.67 60.697 175.67 59.905H177.749C177.749 61.269 177.408 62.501 176.726 63.601C176.066 64.701 175.153 65.57 173.987 66.208C172.843 66.846 171.534 67.165 170.06 67.165ZM177.353 67C176.869 67 176.462 66.846 176.132 66.538C175.824 66.208 175.67 65.801 175.67 65.317V50.599C175.67 50.093 175.824 49.686 176.132 49.378C176.462 49.07 176.869 48.916 177.353 48.916C177.859 48.916 178.266 49.07 178.574 49.378C178.882 49.686 179.036 50.093 179.036 50.599V65.317C179.036 65.801 178.882 66.208 178.574 66.538C178.266 66.846 177.859 67 177.353 67ZM201.2 67.033C200.716 67.033 200.309 66.879 199.979 66.571C199.671 66.241 199.517 65.834 199.517 65.35V57.232C199.517 55.978 199.286 54.955 198.824 54.163C198.362 53.371 197.735 52.788 196.943 52.414C196.173 52.018 195.282 51.82 194.27 51.82C193.346 51.82 192.51 52.007 191.762 52.381C191.014 52.755 190.42 53.261 189.98 53.899C189.54 54.515 189.32 55.23 189.32 56.044H187.241C187.241 54.658 187.571 53.426 188.231 52.348C188.913 51.248 189.837 50.379 191.003 49.741C192.169 49.103 193.478 48.784 194.93 48.784C196.448 48.784 197.801 49.114 198.989 49.774C200.199 50.412 201.145 51.358 201.827 52.612C202.531 53.866 202.883 55.406 202.883 57.232V65.35C202.883 65.834 202.718 66.241 202.388 66.571C202.08 66.879 201.684 67.033 201.2 67.033ZM187.637 67.033C187.153 67.033 186.746 66.879 186.416 66.571C186.108 66.241 185.954 65.834 185.954 65.35V50.632C185.954 50.126 186.108 49.719 186.416 49.411C186.746 49.103 187.153 48.949 187.637 48.949C188.143 48.949 188.55 49.103 188.858 49.411C189.166 49.719 189.32 50.126 189.32 50.632V65.35C189.32 65.834 189.166 66.241 188.858 66.571C188.55 66.879 188.143 67.033 187.637 67.033ZM217.919 67.132C216.093 67.132 214.465 66.747 213.035 65.977C211.627 65.185 210.516 64.107 209.702 62.743C208.91 61.357 208.514 59.773 208.514 57.991C208.514 56.187 208.888 54.603 209.636 53.239C210.406 51.853 211.462 50.775 212.804 50.005C214.146 49.213 215.686 48.817 217.424 48.817C219.14 48.817 220.614 49.202 221.846 49.972C223.078 50.72 224.013 51.765 224.651 53.107C225.311 54.427 225.641 55.956 225.641 57.694C225.641 58.112 225.498 58.464 225.212 58.75C224.926 59.014 224.563 59.146 224.123 59.146H210.824V56.506H224.024L222.671 57.43C222.649 56.33 222.429 55.351 222.011 54.493C221.593 53.613 220.999 52.92 220.229 52.414C219.459 51.908 218.524 51.655 217.424 51.655C216.17 51.655 215.092 51.93 214.19 52.48C213.31 53.03 212.639 53.789 212.177 54.757C211.715 55.703 211.484 56.781 211.484 57.991C211.484 59.201 211.759 60.279 212.309 61.225C212.859 62.171 213.618 62.919 214.586 63.469C215.554 64.019 216.665 64.294 217.919 64.294C218.601 64.294 219.294 64.173 219.998 63.931C220.724 63.667 221.307 63.37 221.747 63.04C222.077 62.798 222.429 62.677 222.803 62.677C223.199 62.655 223.54 62.765 223.826 63.007C224.2 63.337 224.398 63.7 224.42 64.096C224.442 64.492 224.266 64.833 223.892 65.119C223.144 65.713 222.209 66.197 221.087 66.571C219.987 66.945 218.931 67.132 217.919 67.132Z" fill="black"/>
</svg>
